<mxfile host="app.diagrams.net" agent="Mozilla/5.0 (Windows NT 10.0; Win64; x64) AppleWebKit/537.36 (KHTML, like Gecko) Chrome/134.0.0.0 Safari/537.36" version="26.2.4">
  <diagram name="Page-1" id="e7e014a7-5840-1c2e-5031-d8a46d1fe8dd">
    <mxGraphModel dx="1351" dy="592" grid="1" gridSize="10" guides="1" tooltips="1" connect="1" arrows="1" fold="1" page="1" pageScale="1" pageWidth="1169" pageHeight="826" background="none" math="0" shadow="0">
      <root>
        <mxCell id="0" />
        <mxCell id="1" parent="0" />
        <mxCell id="-Wza_gljpBwHimf2oOuU-41" value="&lt;font style=&quot;font-size: 14px;&quot;&gt;user interface&lt;/font&gt;" style="shape=module;align=left;spacingLeft=20;align=center;verticalAlign=top;whiteSpace=wrap;html=1;" vertex="1" parent="1">
          <mxGeometry x="260" y="263.5" width="120" height="60" as="geometry" />
        </mxCell>
        <mxCell id="-Wza_gljpBwHimf2oOuU-42" value="&lt;font style=&quot;font-size: 14px;&quot;&gt;Authentication system&lt;/font&gt;" style="shape=module;align=left;spacingLeft=20;align=center;verticalAlign=top;whiteSpace=wrap;html=1;" vertex="1" parent="1">
          <mxGeometry x="490" y="110" width="130" height="50" as="geometry" />
        </mxCell>
        <mxCell id="-Wza_gljpBwHimf2oOuU-43" value="&lt;font style=&quot;font-size: 14px;&quot;&gt;Timetable&amp;nbsp;&lt;/font&gt;&lt;div&gt;&lt;font style=&quot;font-size: 14px;&quot;&gt;managment&lt;/font&gt;&lt;/div&gt;" style="shape=module;align=left;spacingLeft=20;align=center;verticalAlign=top;whiteSpace=wrap;html=1;" vertex="1" parent="1">
          <mxGeometry x="500" y="403" width="130" height="50" as="geometry" />
        </mxCell>
        <mxCell id="-Wza_gljpBwHimf2oOuU-44" value="&lt;div&gt;&lt;span style=&quot;font-size: 14px; background-color: transparent; color: light-dark(rgb(0, 0, 0), rgb(255, 255, 255));&quot;&gt;Database&lt;/span&gt;&lt;/div&gt;&lt;div&gt;&lt;span style=&quot;font-size: 14px; background-color: transparent; color: light-dark(rgb(0, 0, 0), rgb(255, 255, 255));&quot;&gt;&amp;lt;&amp;lt;database&amp;gt;&amp;gt;&lt;/span&gt;&lt;/div&gt;" style="shape=module;align=left;spacingLeft=20;align=center;verticalAlign=top;whiteSpace=wrap;html=1;" vertex="1" parent="1">
          <mxGeometry x="760" y="110" width="130" height="50" as="geometry" />
        </mxCell>
        <mxCell id="-Wza_gljpBwHimf2oOuU-45" value="&lt;div&gt;&lt;span style=&quot;font-size: 14px; background-color: transparent; color: light-dark(rgb(0, 0, 0), rgb(255, 255, 255));&quot;&gt;Notification&lt;/span&gt;&lt;/div&gt;&lt;div&gt;&lt;span style=&quot;font-size: 14px; background-color: transparent; color: light-dark(rgb(0, 0, 0), rgb(255, 255, 255));&quot;&gt;system&lt;/span&gt;&lt;/div&gt;" style="shape=module;align=left;spacingLeft=20;align=center;verticalAlign=top;whiteSpace=wrap;html=1;" vertex="1" parent="1">
          <mxGeometry x="770" y="403" width="130" height="50" as="geometry" />
        </mxCell>
        <mxCell id="-Wza_gljpBwHimf2oOuU-52" value="" style="endArrow=none;html=1;rounded=0;" edge="1" parent="1">
          <mxGeometry width="50" height="50" relative="1" as="geometry">
            <mxPoint x="540" y="200" as="sourcePoint" />
            <mxPoint x="540" y="160" as="targetPoint" />
          </mxGeometry>
        </mxCell>
        <mxCell id="-Wza_gljpBwHimf2oOuU-53" value="" style="ellipse;whiteSpace=wrap;html=1;aspect=fixed;" vertex="1" parent="1">
          <mxGeometry x="530" y="200" width="21" height="21" as="geometry" />
        </mxCell>
        <mxCell id="-Wza_gljpBwHimf2oOuU-56" value="" style="endArrow=none;html=1;rounded=0;" edge="1" parent="1">
          <mxGeometry width="50" height="50" relative="1" as="geometry">
            <mxPoint x="590" y="403" as="sourcePoint" />
            <mxPoint x="590" y="350" as="targetPoint" />
          </mxGeometry>
        </mxCell>
        <mxCell id="-Wza_gljpBwHimf2oOuU-58" value="" style="ellipse;whiteSpace=wrap;html=1;aspect=fixed;" vertex="1" parent="1">
          <mxGeometry x="580" y="330" width="21" height="21" as="geometry" />
        </mxCell>
        <mxCell id="-Wza_gljpBwHimf2oOuU-59" value="" style="endArrow=none;html=1;rounded=0;" edge="1" parent="1">
          <mxGeometry width="50" height="50" relative="1" as="geometry">
            <mxPoint x="810" y="200" as="sourcePoint" />
            <mxPoint x="810" y="160" as="targetPoint" />
          </mxGeometry>
        </mxCell>
        <mxCell id="-Wza_gljpBwHimf2oOuU-60" value="" style="ellipse;whiteSpace=wrap;html=1;aspect=fixed;" vertex="1" parent="1">
          <mxGeometry x="800" y="200" width="21" height="21" as="geometry" />
        </mxCell>
        <mxCell id="-Wza_gljpBwHimf2oOuU-61" value="" style="endArrow=none;html=1;rounded=0;exitX=0.306;exitY=0.033;exitDx=0;exitDy=0;exitPerimeter=0;" edge="1" parent="1" source="-Wza_gljpBwHimf2oOuU-45">
          <mxGeometry width="50" height="50" relative="1" as="geometry">
            <mxPoint x="810" y="400" as="sourcePoint" />
            <mxPoint x="810" y="345.5" as="targetPoint" />
            <Array as="points">
              <mxPoint x="810" y="370" />
            </Array>
          </mxGeometry>
        </mxCell>
        <mxCell id="-Wza_gljpBwHimf2oOuU-62" value="" style="ellipse;whiteSpace=wrap;html=1;aspect=fixed;" vertex="1" parent="1">
          <mxGeometry x="800" y="323.5" width="21" height="21" as="geometry" />
        </mxCell>
        <mxCell id="-Wza_gljpBwHimf2oOuU-70" value="" style="html=1;labelBackgroundColor=#ffffff;startArrow=none;startFill=0;startSize=6;endArrow=classic;endFill=1;endSize=6;jettySize=auto;orthogonalLoop=1;strokeWidth=1;dashed=1;fontSize=14;rounded=0;entryX=0;entryY=0.5;entryDx=0;entryDy=0;exitX=0.5;exitY=0;exitDx=0;exitDy=0;" edge="1" parent="1" source="-Wza_gljpBwHimf2oOuU-41" target="-Wza_gljpBwHimf2oOuU-53">
          <mxGeometry width="60" height="60" relative="1" as="geometry">
            <mxPoint x="360" y="221" as="sourcePoint" />
            <mxPoint x="420" y="161" as="targetPoint" />
            <Array as="points">
              <mxPoint x="320" y="211" />
            </Array>
          </mxGeometry>
        </mxCell>
        <mxCell id="-Wza_gljpBwHimf2oOuU-72" value="" style="html=1;labelBackgroundColor=#ffffff;startArrow=none;startFill=0;startSize=6;endArrow=classic;endFill=1;endSize=6;jettySize=auto;orthogonalLoop=1;strokeWidth=1;dashed=1;fontSize=14;rounded=0;exitX=0.5;exitY=0;exitDx=0;exitDy=0;entryX=0.5;entryY=1;entryDx=0;entryDy=0;" edge="1" parent="1" source="-Wza_gljpBwHimf2oOuU-43" target="-Wza_gljpBwHimf2oOuU-60">
          <mxGeometry width="60" height="60" relative="1" as="geometry">
            <mxPoint x="780" y="310" as="sourcePoint" />
            <mxPoint x="840" y="250" as="targetPoint" />
            <Array as="points">
              <mxPoint x="565" y="280" />
              <mxPoint x="811" y="280" />
            </Array>
          </mxGeometry>
        </mxCell>
        <mxCell id="-Wza_gljpBwHimf2oOuU-73" value="" style="html=1;labelBackgroundColor=#ffffff;startArrow=none;startFill=0;startSize=6;endArrow=classic;endFill=1;endSize=6;jettySize=auto;orthogonalLoop=1;strokeWidth=1;dashed=1;fontSize=14;rounded=0;entryX=0;entryY=0.5;entryDx=0;entryDy=0;" edge="1" parent="1" target="-Wza_gljpBwHimf2oOuU-62">
          <mxGeometry width="60" height="60" relative="1" as="geometry">
            <mxPoint x="630" y="420" as="sourcePoint" />
            <mxPoint x="690" y="360" as="targetPoint" />
            <Array as="points">
              <mxPoint x="700" y="420" />
              <mxPoint x="700" y="334" />
            </Array>
          </mxGeometry>
        </mxCell>
        <mxCell id="-Wza_gljpBwHimf2oOuU-74" value="" style="html=1;labelBackgroundColor=#ffffff;startArrow=none;startFill=0;startSize=6;endArrow=classic;endFill=1;endSize=6;jettySize=auto;orthogonalLoop=1;strokeWidth=1;dashed=1;fontSize=14;rounded=0;exitX=0.185;exitY=0.988;exitDx=0;exitDy=0;entryX=1;entryY=0.5;entryDx=0;entryDy=0;exitPerimeter=0;" edge="1" parent="1" source="-Wza_gljpBwHimf2oOuU-44" target="-Wza_gljpBwHimf2oOuU-53">
          <mxGeometry width="60" height="60" relative="1" as="geometry">
            <mxPoint x="640" y="230" as="sourcePoint" />
            <mxPoint x="700" y="170" as="targetPoint" />
            <Array as="points">
              <mxPoint x="785" y="210" />
            </Array>
          </mxGeometry>
        </mxCell>
        <mxCell id="-Wza_gljpBwHimf2oOuU-75" value="" style="html=1;labelBackgroundColor=#ffffff;startArrow=none;startFill=0;startSize=6;endArrow=classic;endFill=1;endSize=6;jettySize=auto;orthogonalLoop=1;strokeWidth=1;dashed=1;fontSize=14;rounded=0;exitX=0.528;exitY=1.035;exitDx=0;exitDy=0;exitPerimeter=0;entryX=0.5;entryY=0;entryDx=0;entryDy=0;" edge="1" parent="1" source="-Wza_gljpBwHimf2oOuU-44" target="-Wza_gljpBwHimf2oOuU-58">
          <mxGeometry width="60" height="60" relative="1" as="geometry">
            <mxPoint x="830" y="170" as="sourcePoint" />
            <mxPoint x="830" y="290" as="targetPoint" />
            <Array as="points">
              <mxPoint x="829" y="310" />
              <mxPoint x="590" y="310" />
            </Array>
          </mxGeometry>
        </mxCell>
        <mxCell id="-Wza_gljpBwHimf2oOuU-76" value="admin" style="shape=umlActor;verticalLabelPosition=bottom;verticalAlign=top;html=1;outlineConnect=0;" vertex="1" parent="1">
          <mxGeometry x="180" y="380" width="30" height="60" as="geometry" />
        </mxCell>
        <mxCell id="-Wza_gljpBwHimf2oOuU-77" value="student" style="shape=umlActor;verticalLabelPosition=bottom;verticalAlign=top;html=1;outlineConnect=0;" vertex="1" parent="1">
          <mxGeometry x="180" y="257" width="30" height="60" as="geometry" />
        </mxCell>
        <mxCell id="-Wza_gljpBwHimf2oOuU-78" value="teacher" style="shape=umlActor;verticalLabelPosition=bottom;verticalAlign=top;html=1;outlineConnect=0;" vertex="1" parent="1">
          <mxGeometry x="180" y="130" width="30" height="60" as="geometry" />
        </mxCell>
        <mxCell id="-Wza_gljpBwHimf2oOuU-80" value="" style="html=1;labelBackgroundColor=#ffffff;startArrow=none;startFill=0;startSize=6;endArrow=classic;endFill=1;endSize=6;jettySize=auto;orthogonalLoop=1;strokeWidth=1;dashed=1;fontSize=14;rounded=0;entryX=0.211;entryY=0.003;entryDx=0;entryDy=0;entryPerimeter=0;" edge="1" parent="1" target="-Wza_gljpBwHimf2oOuU-41">
          <mxGeometry width="60" height="60" relative="1" as="geometry">
            <mxPoint x="220" y="180" as="sourcePoint" />
            <mxPoint x="280" y="120" as="targetPoint" />
          </mxGeometry>
        </mxCell>
        <mxCell id="-Wza_gljpBwHimf2oOuU-81" value="" style="html=1;labelBackgroundColor=#ffffff;startArrow=none;startFill=0;startSize=6;endArrow=classic;endFill=1;endSize=6;jettySize=auto;orthogonalLoop=1;strokeWidth=1;dashed=1;fontSize=14;rounded=0;entryX=-0.003;entryY=0.355;entryDx=0;entryDy=0;entryPerimeter=0;" edge="1" parent="1" target="-Wza_gljpBwHimf2oOuU-41">
          <mxGeometry width="60" height="60" relative="1" as="geometry">
            <mxPoint x="220" y="284.5" as="sourcePoint" />
            <mxPoint x="280" y="224.5" as="targetPoint" />
          </mxGeometry>
        </mxCell>
        <mxCell id="-Wza_gljpBwHimf2oOuU-82" value="" style="html=1;labelBackgroundColor=#ffffff;startArrow=none;startFill=0;startSize=6;endArrow=classic;endFill=1;endSize=6;jettySize=auto;orthogonalLoop=1;strokeWidth=1;dashed=1;fontSize=14;rounded=0;entryX=0.25;entryY=1;entryDx=0;entryDy=0;" edge="1" parent="1" target="-Wza_gljpBwHimf2oOuU-41">
          <mxGeometry width="60" height="60" relative="1" as="geometry">
            <mxPoint x="220" y="404.5" as="sourcePoint" />
            <mxPoint x="280" y="344.5" as="targetPoint" />
          </mxGeometry>
        </mxCell>
        <mxCell id="-Wza_gljpBwHimf2oOuU-83" value="user authorization" style="text;html=1;align=center;verticalAlign=middle;whiteSpace=wrap;rounded=0;" vertex="1" parent="1">
          <mxGeometry x="510.5" y="227" width="60" height="30" as="geometry" />
        </mxCell>
        <mxCell id="-Wza_gljpBwHimf2oOuU-84" value="database&lt;div&gt;service&lt;/div&gt;" style="text;html=1;align=center;verticalAlign=middle;whiteSpace=wrap;rounded=0;" vertex="1" parent="1">
          <mxGeometry x="840" y="195.5" width="60" height="30" as="geometry" />
        </mxCell>
        <mxCell id="-Wza_gljpBwHimf2oOuU-85" value="notification service" style="text;html=1;align=center;verticalAlign=middle;whiteSpace=wrap;rounded=0;" vertex="1" parent="1">
          <mxGeometry x="830" y="321" width="60" height="30" as="geometry" />
        </mxCell>
        <mxCell id="-Wza_gljpBwHimf2oOuU-86" value="" style="html=1;labelBackgroundColor=#ffffff;startArrow=none;startFill=0;startSize=6;endArrow=classic;endFill=1;endSize=6;jettySize=auto;orthogonalLoop=1;strokeWidth=1;dashed=1;fontSize=14;rounded=0;exitX=1;exitY=0.75;exitDx=0;exitDy=0;entryX=0;entryY=0.5;entryDx=0;entryDy=0;" edge="1" parent="1" source="-Wza_gljpBwHimf2oOuU-41" target="-Wza_gljpBwHimf2oOuU-58">
          <mxGeometry width="60" height="60" relative="1" as="geometry">
            <mxPoint x="540" y="350" as="sourcePoint" />
            <mxPoint x="600" y="290" as="targetPoint" />
            <Array as="points">
              <mxPoint x="440" y="340" />
            </Array>
          </mxGeometry>
        </mxCell>
        <mxCell id="-Wza_gljpBwHimf2oOuU-87" value="Timetable service" style="text;html=1;align=center;verticalAlign=middle;whiteSpace=wrap;rounded=0;" vertex="1" parent="1">
          <mxGeometry x="601" y="325.5" width="60" height="30" as="geometry" />
        </mxCell>
      </root>
    </mxGraphModel>
  </diagram>
</mxfile>
